<?xml version="1.0" encoding="utf-8"?>
<!-- Generator: Adobe Illustrator 17.0.2, SVG Export Plug-In . SVG Version: 6.00 Build 0)  -->
<!DOCTYPE svg PUBLIC "-//W3C//DTD SVG 1.1//EN" "http://www.w3.org/Graphics/SVG/1.1/DTD/svg11.dtd">
<svg version="1.1" id="Layer_1" xmlns="http://www.w3.org/2000/svg" xmlns:xlink="http://www.w3.org/1999/xlink" x="0px" y="0px"
	 width="5928px" height="2336px" viewBox="0 0 5928 2336" enable-background="new 0 0 5928 2336" xml:space="preserve">
<path fill="#F9F3AF" d="M201.828,516.656c0,0-145.828-408.891,202.172-432.529s184.003,466.957,184.003,466.957"/>
<path fill="#ED9FA5" d="M637.709,724C645.045,698.596,649,672.342,649,644.878c0-146.146-111.929-264.753-250-264.753
	S149,498.798,149,644.944c0,27.464,3.955,53.652,11.291,79.056H637.709z"/>
<circle fill="#ED9FA5" cx="399" cy="306" r="154"/>
<path fill="#F9F3AF" d="M468,140.468c0,0-188.005,221.58-241.722,223.541C172.561,365.97,208.372,77.202,468,140.468z"/>
<path fill="#F9F3AF" d="M769.828,516.656c0,0-145.828-408.891,202.172-432.529s184.003,466.957,184.003,466.957"/>
<path fill="#ED9FA5" d="M1205.709,724c7.336-25.404,11.291-51.658,11.291-79.122c0-146.146-111.929-264.753-250-264.753
	S717,498.798,717,644.944c0,27.464,3.955,53.652,11.291,79.056H1205.709z"/>
<circle fill="#ED9FA5" cx="967" cy="306" r="154"/>
<path fill="#F9F3AF" d="M1036,140.468c0,0-188.005,221.58-241.722,223.541C740.561,365.97,776.372,77.202,1036,140.468z"/>
<path fill="#F9F3AF" d="M1337.828,516.656c0,0-145.828-408.891,202.172-432.529s184.003,466.957,184.003,466.957"/>
<path fill="#ED9FA5" d="M1773.709,724c7.336-25.404,11.291-51.658,11.291-79.122c0-146.146-111.929-264.753-250-264.753
	s-250,118.673-250,264.819c0,27.464,3.955,53.652,11.291,79.056H1773.709z"/>
<circle fill="#ED9FA5" cx="1535" cy="306" r="154"/>
<path fill="#F9F3AF" d="M1604,140.468c0,0-188.005,221.58-241.722,223.541C1308.561,365.97,1344.372,77.202,1604,140.468z"/>
<path fill="#86B2C4" d="M2341.709,724c7.336-25.404,11.291-51.658,11.291-79.122c0-146.146-111.929-264.753-250-264.753
	s-250,118.673-250,264.819c0,27.464,3.955,53.652,11.291,79.056H2341.709z"/>
<circle fill="#86B2C4" cx="2103" cy="306" r="154"/>
<path fill="#86B2C4" d="M2909.709,724c7.336-25.404,11.291-51.658,11.291-79.122c0-146.146-111.929-264.753-250-264.753
	s-250,118.673-250,264.819c0,27.464,3.955,53.652,11.291,79.056H2909.709z"/>
<circle fill="#86B2C4" cx="2671" cy="306" r="154"/>
<path fill="#86B2C4" d="M3477.709,724c7.336-25.404,11.291-51.658,11.291-79.122c0-146.146-111.929-264.753-250-264.753
	s-250,118.673-250,264.819c0,27.464,3.955,53.652,11.291,79.056H3477.709z"/>
<circle fill="#86B2C4" cx="3239" cy="306" r="154"/>
<path fill="#86B2C4" d="M4045.709,724c7.336-25.404,11.291-51.658,11.291-79.122c0-146.146-111.929-264.753-250-264.753
	s-250,118.673-250,264.819c0,27.464,3.955,53.652,11.291,79.056H4045.709z"/>
<circle fill="#86B2C4" cx="3807" cy="306" r="154"/>
<path fill="#86B2C4" d="M4613.709,724c7.336-25.404,11.291-51.658,11.291-79.122c0-146.146-111.929-264.753-250-264.753
	s-250,118.673-250,264.819c0,27.464,3.955,53.652,11.291,79.056H4613.709z"/>
<circle fill="#86B2C4" cx="4375" cy="306" r="154"/>
<path fill="#86B2C4" d="M5181.709,724c7.336-25.404,11.291-51.658,11.291-79.122c0-146.146-111.929-264.753-250-264.753
	s-250,118.673-250,264.819c0,27.464,3.955,53.652,11.291,79.056H5181.709z"/>
<circle fill="#86B2C4" cx="4943" cy="306" r="154"/>
<path fill="#86B2C4" d="M5749.709,724c7.336-25.404,11.291-51.658,11.291-79.122c0-146.146-111.929-264.753-250-264.753
	s-250,118.673-250,264.819c0,27.464,3.955,53.652,11.291,79.056H5749.709z"/>
<circle fill="#86B2C4" cx="5511" cy="306" r="154"/>
<path fill="#86B2C4" d="M637.709,1446c7.336-25.404,11.291-51.658,11.291-79.122c0-146.146-111.929-264.753-250-264.753
	s-250,118.673-250,264.819c0,27.464,3.955,53.652,11.291,79.056H637.709z"/>
<circle fill="#86B2C4" cx="399" cy="1028" r="154"/>
<path fill="#86B2C4" d="M1205.709,1446c7.336-25.404,11.291-51.658,11.291-79.122c0-146.146-111.929-264.753-250-264.753
	s-250,118.673-250,264.819c0,27.464,3.955,53.652,11.291,79.056H1205.709z"/>
<circle fill="#86B2C4" cx="967" cy="1028" r="154"/>
<path fill="#86B2C4" d="M1773.709,1446c7.336-25.404,11.291-51.658,11.291-79.122c0-146.146-111.929-264.753-250-264.753
	s-250,118.673-250,264.819c0,27.464,3.955,53.652,11.291,79.056H1773.709z"/>
<circle fill="#86B2C4" cx="1535" cy="1028" r="154"/>
<path fill="#86B2C4" d="M2341.709,1446c7.336-25.404,11.291-51.658,11.291-79.122c0-146.146-111.929-264.753-250-264.753
	s-250,118.673-250,264.819c0,27.464,3.955,53.652,11.291,79.056H2341.709z"/>
<circle fill="#86B2C4" cx="2103" cy="1028" r="154"/>
<path fill="#86B2C4" d="M2909.709,1446c7.336-25.404,11.291-51.658,11.291-79.122c0-146.146-111.929-264.753-250-264.753
	s-250,118.673-250,264.819c0,27.464,3.955,53.652,11.291,79.056H2909.709z"/>
<circle fill="#86B2C4" cx="2671" cy="1028" r="154"/>
<path fill="#86B2C4" d="M3477.709,1446c7.336-25.404,11.291-51.658,11.291-79.122c0-146.146-111.929-264.753-250-264.753
	s-250,118.673-250,264.819c0,27.464,3.955,53.652,11.291,79.056H3477.709z"/>
<circle fill="#86B2C4" cx="3239" cy="1028" r="154"/>
<path fill="#86B2C4" d="M4045.709,1446c7.336-25.404,11.291-51.658,11.291-79.122c0-146.146-111.929-264.753-250-264.753
	s-250,118.673-250,264.819c0,27.464,3.955,53.652,11.291,79.056H4045.709z"/>
<circle fill="#86B2C4" cx="3807" cy="1028" r="154"/>
<path fill="#86B2C4" d="M4613.709,1446c7.336-25.404,11.291-51.658,11.291-79.122c0-146.146-111.929-264.753-250-264.753
	s-250,118.673-250,264.819c0,27.464,3.955,53.652,11.291,79.056H4613.709z"/>
<circle fill="#86B2C4" cx="4375" cy="1028" r="154"/>
<path fill="#86B2C4" d="M5181.709,1446c7.336-25.404,11.291-51.658,11.291-79.122c0-146.146-111.929-264.753-250-264.753
	s-250,118.673-250,264.819c0,27.464,3.955,53.652,11.291,79.056H5181.709z"/>
<circle fill="#86B2C4" cx="4943" cy="1028" r="154"/>
<path fill="#86B2C4" d="M5749.709,1446c7.336-25.404,11.291-51.658,11.291-79.122c0-146.146-111.929-264.753-250-264.753
	s-250,118.673-250,264.819c0,27.464,3.955,53.652,11.291,79.056H5749.709z"/>
<circle fill="#86B2C4" cx="5511" cy="1028" r="154"/>
<path fill="#86B2C4" d="M637.709,2168c7.336-25.404,11.291-51.658,11.291-79.122c0-146.146-111.929-264.753-250-264.753
	s-250,118.673-250,264.82c0,27.464,3.955,53.652,11.291,79.055H637.709z"/>
<circle fill="#86B2C4" cx="399" cy="1750" r="154"/>
<path fill="#86B2C4" d="M1205.709,2168c7.336-25.404,11.291-51.658,11.291-79.122c0-146.146-111.929-264.753-250-264.753
	s-250,118.673-250,264.82c0,27.464,3.955,53.652,11.291,79.055H1205.709z"/>
<circle fill="#86B2C4" cx="967" cy="1750" r="154"/>
<path fill="#86B2C4" d="M1773.709,2168c7.336-25.404,11.291-51.658,11.291-79.122c0-146.146-111.929-264.753-250-264.753
	s-250,118.673-250,264.82c0,27.464,3.955,53.652,11.291,79.055H1773.709z"/>
<circle fill="#86B2C4" cx="1535" cy="1750" r="154"/>
<path fill="#86B2C4" d="M2341.709,2168c7.336-25.404,11.291-51.658,11.291-79.122c0-146.146-111.929-264.753-250-264.753
	s-250,118.673-250,264.82c0,27.464,3.955,53.652,11.291,79.055H2341.709z"/>
<circle fill="#86B2C4" cx="2103" cy="1750" r="154"/>
<path fill="#86B2C4" d="M2909.709,2168c7.336-25.404,11.291-51.658,11.291-79.122c0-146.146-111.929-264.753-250-264.753
	s-250,118.673-250,264.82c0,27.464,3.955,53.652,11.291,79.055H2909.709z"/>
<circle fill="#86B2C4" cx="2671" cy="1750" r="154"/>
</svg>
